<svg width="443" height="260" viewBox="0 0 443 260" fill="none" xmlns="http://www.w3.org/2000/svg">
<rect x="2" y="29.9951" width="430" height="166" rx="16" transform="rotate(-4 2 29.9951)" fill="#F7FCFE"/>
<path d="M155.847 88.9106C151.645 89.2044 148.697 87.8227 146.682 85.8344L148.926 82.3213C150.614 83.755 152.636 84.8045 155.043 84.6363C157.736 84.4479 159.475 82.9911 159.306 80.585C159.126 77.9993 157.466 76.4553 151.684 76.8596L151.42 73.0888C156.304 72.7473 157.766 70.9489 157.601 68.5787C157.455 66.4958 156.077 65.3652 153.814 65.5234C151.911 65.6565 150.427 66.6264 148.95 68.2093L146.03 65.1655C148.188 62.9937 150.65 61.5585 153.774 61.34C158.91 60.9809 162.572 63.2871 162.888 67.812C163.089 70.685 161.619 72.8809 158.895 74.1901L158.908 74.3696C161.946 74.9872 164.4 77.053 164.644 80.5365C164.986 85.4206 160.91 88.5565 155.847 88.9106ZM177.748 87.3791C172.326 87.7583 168.403 83.269 167.763 74.1113C167.12 64.9178 170.397 60.1776 175.82 59.7984C181.243 59.4192 185.114 63.6956 185.755 72.8532C186.395 82.0108 183.171 86.9999 177.748 87.3791ZM177.46 83.2492C179.758 83.0884 181.285 80.672 180.763 73.2023C180.243 65.7684 178.405 63.7317 176.106 63.8924C173.808 64.0532 172.235 66.3284 172.754 73.7623C173.277 81.232 175.161 83.4099 177.46 83.2492ZM193.938 55.2475L197.973 56.1923C197.342 58.51 196.569 60.8737 195.649 63.2115L197.43 88.6733L193.372 88.9571L192.086 70.57C191.374 71.7385 190.657 72.8352 189.896 73.8267C189.5 72.8078 188.283 70.3668 187.561 69.3346C190.313 65.8582 192.683 60.5319 193.938 55.2475ZM212.445 76.8331L212.181 73.0623L208.518 73.3185L208.782 77.0893L212.445 76.8331ZM215.853 66.7428L211.508 67.0466L211.724 70.1351L215.171 69.894L215.844 79.5185L205.896 80.2141L205.223 70.5896L208.42 70.3661L208.204 67.2777L204.074 67.5665L203.858 64.478L207.988 64.1892L207.732 60.5262L211.036 60.2951L211.292 63.9582L215.637 63.6543L215.853 66.7428ZM204.203 82.3174L217.706 81.3731L216.154 59.1793L202.651 60.1236L204.203 82.3174ZM198.514 56.6958L219.954 55.1966L222.146 86.5481L218.088 86.8318L217.965 85.0721L204.462 86.0163L204.607 88.0993L200.729 88.3705L198.514 56.6958ZM233.552 82.9717L231.686 56.2888L249.894 55.0156L250.203 59.4328L237.238 60.3394L237.675 66.5881L247.623 65.8925L247.934 70.3457L237.987 71.0413L238.484 78.1519L251.915 77.2127L252.227 81.6658L233.552 82.9717ZM290.624 68.7679L291.159 76.4172C291.292 78.3206 290.929 79.3204 289.497 79.9979C288.137 80.6705 286.161 80.8086 283.504 80.9944C283.177 79.9346 282.464 78.5049 281.857 77.5729C283.586 77.5242 285.741 77.3735 286.208 77.3409C286.78 77.2648 286.985 77.1061 286.955 76.6751L286.671 72.6171L279.597 73.1118L280.28 82.8799L276.042 83.1762L275.359 73.4081L268.967 73.8551L269.532 81.9354L265.402 82.2241L264.588 70.5886L275.11 69.8528L274.977 67.9494L279.215 67.6531L279.348 69.5564L290.624 68.7679ZM270.989 59.4229L272.783 58.7561C273.562 60.6143 274.307 63.0161 274.564 64.6221L272.737 65.3273C272.516 63.7188 271.804 61.2785 270.989 59.4229ZM287.015 55.343L282.849 55.6343C283.514 56.8869 284.28 58.0243 285.258 59.1108C286.044 57.9731 286.608 56.7428 287.015 55.343ZM292.725 54.9437L290.93 55.0693C290.272 57.5331 289.302 59.658 287.986 61.4822C289.697 62.7339 291.709 63.6397 293.948 64.1689C293.205 64.9065 292.295 66.3415 291.889 67.236C289.532 66.5707 287.469 65.4519 285.638 64.0282C284.079 65.4725 282.176 66.6521 280.007 67.6338C279.629 66.8663 278.508 65.2846 277.809 64.5757C279.844 63.7477 281.618 62.7936 283.046 61.539C282.142 60.4834 281.377 59.3461 280.642 58.1343C280.213 58.7057 279.746 59.2436 279.234 59.6763C278.807 59.2371 278.031 58.4613 277.301 57.8267L277.949 67.0921L274.896 67.3055L274.226 57.7169L270.67 57.9655L271.378 68.0928L268.757 68.2761L268.049 58.1489L264.565 58.3924L264.975 64.2461C265.413 62.772 265.577 60.9922 265.641 59.3277L267.754 59.613C267.62 61.8237 267.211 64.2341 266.67 65.7876C266.329 65.5588 265.589 65.2858 265.03 65.0362L265.296 68.8429L262.279 69.0539L261.373 56.0895L263.168 55.964C262.734 54.9117 261.879 53.528 261.047 52.4674L263.904 51.0046C264.885 52.1269 265.932 53.6776 266.364 54.694L264.174 55.8936L267.334 55.6727L266.945 50.1063L270.644 49.8476L271.033 55.414L274.05 55.2031L272.166 54.577C272.768 53.3801 273.501 51.4883 273.883 50.2346L277.413 51.1786C276.506 52.6495 275.631 54.082 274.948 55.1403L277.102 54.9896L277.208 56.4979C279.022 54.5667 280.354 51.9474 280.879 49.1319L284.487 49.6374C284.298 50.5528 284.002 51.4757 283.703 52.3628L292.502 51.7475L292.725 54.9437Z" fill="#105F80"/>
<path d="M136.682 134.888L136.788 136.396L139.084 136.199C138.771 135.86 138.461 135.557 138.151 135.254L139.124 134.717L136.682 134.888ZM129.985 133.046L132.894 132.843L132.794 131.407L129.885 131.61L129.985 133.046ZM129.634 128.019L129.732 129.419L132.641 129.216L132.543 127.815L129.634 128.019ZM139.222 127.348L136.17 127.562L136.268 128.962L139.32 128.749L139.222 127.348ZM139.574 132.376L139.474 130.939L136.421 131.153L136.522 132.589L139.574 132.376ZM126.42 140.369L125.991 137.332C127.966 137.193 130.441 136.984 133.166 136.722L133.055 135.141L126.806 135.578L126.133 125.954L132.382 125.517L132.289 124.188L125.43 124.668L125.211 121.543L132.071 121.064L131.905 118.694L135.532 118.44L135.698 120.81L142.916 120.305L143.135 123.43L135.916 123.935L136.009 125.263L142.581 124.804L143.254 134.428L141.746 134.534C143.026 135.816 144.214 137.32 144.908 138.463L142.03 140.144C141.825 139.797 141.58 139.381 141.26 138.934C135.885 139.491 130.365 140.021 126.42 140.369ZM137.358 148.157L137.081 144.207L131.694 144.583C132.886 145.619 133.987 146.913 134.56 147.884L133.152 148.92C134.594 148.892 136.246 148.776 136.713 148.743C137.213 148.672 137.385 148.552 137.358 148.157ZM115.093 136.831L115.241 138.949L117.288 138.806L117.14 136.687L115.093 136.831ZM114.749 131.911L114.897 134.029L116.944 133.886L116.796 131.767L114.749 131.911ZM121.9 133.54L121.752 131.421L119.561 131.574L119.71 133.693L121.9 133.54ZM122.244 138.46L122.096 136.341L119.905 136.494L120.054 138.613L122.244 138.46ZM140.643 139.411L140.741 140.811L144.835 140.525L145.054 143.649L140.96 143.935L141.244 147.994C141.372 149.825 141.147 150.743 139.82 151.377C138.527 151.973 136.805 152.129 134.291 152.305C134.111 151.271 133.515 149.977 133.016 149.038L131.643 150.036C130.98 148.82 129.631 147.073 128.248 145.871L129.935 144.706L126.559 144.942L126.705 147.025L121.174 147.412L121.571 153.086L117.8 153.35L117.403 147.676L111.621 148.08L111.36 144.345L117.142 143.941L116.991 141.786L112.395 142.108L111.488 129.143L116.085 128.822L115.954 126.954L110.675 127.324L110.417 123.625L115.696 123.255L115.457 119.844L119.228 119.58L119.466 122.992L124.566 122.635L124.825 126.334L119.725 126.691L119.856 128.558L124.632 128.224L125.539 141.188L120.762 141.522L120.913 143.677L126.443 143.291L126.34 141.818L136.863 141.082L136.765 139.682L140.643 139.411ZM146.931 131.789L179.97 129.479L180.294 134.112L147.255 136.422L146.931 131.789ZM209.879 123.165L198.926 123.931C198.016 126.918 196.829 129.563 195.533 131.675C194.55 131.022 192.273 129.954 191.087 129.496C193.834 125.947 195.551 120.053 196.188 114.199L200.984 114.657C200.74 116.334 200.458 117.978 200.102 119.591L210.911 118.835L211.72 118.526L214.972 120.139C214.305 124.011 213.065 127.959 211.965 130.814C211.068 130.372 209.248 129.633 208.179 129.311C208.756 127.755 209.422 125.399 209.879 123.165ZM192.956 119.585L193.245 123.715L183.369 124.406L183.08 120.276L192.956 119.585ZM194.75 133.895L195.049 138.168L183.665 138.964L183.366 134.691L194.75 133.895ZM205.514 127.837L205.569 128.627C207.557 135.381 211.056 140.513 217.358 142.382C216.448 143.312 215.281 145.198 214.787 146.388C210.047 144.662 206.894 141.382 204.629 136.849C203.389 140.797 200.608 144.889 194.88 148.14C194.161 147.144 192.501 145.6 191.402 144.847C200.718 139.757 201.234 132.684 200.91 128.051L200.679 124.747L205.276 124.425L205.514 127.837ZM239.782 139.479L245.025 139.113C245.037 136.189 245.016 132.798 244.914 129.268L239.994 129.612C239.955 133.188 239.868 136.586 239.782 139.479ZM244.383 117.035L240.002 117.342C240.008 120.012 240.025 122.826 240.005 125.642L244.781 125.308C244.66 122.538 244.536 119.731 244.383 117.035ZM252.455 128.741L249.008 128.982C249.077 132.55 249.133 135.938 249.155 138.824L253.069 138.55L253.35 142.572L231.624 144.091L231.342 140.069L235.544 139.775C235.702 136.877 235.787 133.443 235.864 129.901L231.806 130.185L231.92 130.79C230.581 131.245 229.208 131.738 227.832 132.195L228.453 141.065C228.601 143.184 228.276 144.217 227.136 144.947C225.96 145.678 224.247 145.943 221.73 146.082C221.511 145.015 220.855 143.365 220.274 142.287C221.68 142.261 223.188 142.155 223.655 142.123C224.122 142.09 224.289 141.898 224.251 141.359L223.709 133.602C222.331 134.023 221.027 134.475 219.826 134.848L218.462 130.829C219.879 130.441 221.575 129.926 223.412 129.364L222.973 123.08L218.556 123.389L218.282 119.474L222.699 119.165L222.224 112.378L226.426 112.084L226.901 118.871L230.743 118.603L231.017 122.517L227.174 122.786L227.544 128.065L231.144 126.911L231.421 128.299L231.278 126.252L235.875 125.931C235.895 123.114 235.876 120.265 235.8 117.636L231.958 117.904L231.679 113.918L248.342 112.753C248.539 116.601 248.728 120.846 248.875 125.022L252.179 124.791L252.455 128.741ZM280.775 113.119L272.551 113.694L272.679 115.526L280.113 115.006C280.324 114.414 280.569 113.783 280.775 113.119ZM260.702 115.064L264.686 115.796C264.488 116.568 264.217 117.345 263.944 118.086C265.148 119.301 266.778 119.908 268.743 120.132L268.313 113.991L256.247 114.835L256.006 111.387L282.186 109.556L282.858 109.365L286.073 109.934C285.372 112.293 284.401 114.923 283.511 116.645L280.732 116.118L280.852 117.841L272.88 118.399L273.005 120.195C273.726 120.18 274.444 120.13 275.234 120.075C277.317 119.929 285.182 119.379 287.832 119.086C287.282 119.99 286.794 121.793 286.695 122.954L275.455 123.74C269.529 124.155 265.503 123.859 262.634 121.028C261.068 123.916 258.971 126.445 256.432 128.319C256.005 127.374 254.846 125.254 254.134 124.365C257.272 122.269 259.711 118.959 260.702 115.064ZM274.285 137.463L279.559 137.022C278.916 136.598 278.273 136.174 277.671 135.819L278.919 134.577L274.107 134.914L274.285 137.463ZM262.935 132.555L269.687 132.083L269.528 129.821L262.777 130.293L262.935 132.555ZM280.123 129.08L273.73 129.527L273.888 131.789L280.281 131.342L280.123 129.08ZM284.845 134.163L281.972 134.364C284.575 135.986 287.453 137.914 289.162 139.13L286.618 141.978C285.819 141.384 284.791 140.626 283.69 139.837C274.098 140.977 263.89 142.088 256.974 142.788L256.447 138.855C259.93 138.612 264.74 138.239 270.088 137.829L269.905 135.207L259.131 135.961L258.536 127.45L269.31 126.696L269.179 124.829L273.381 124.535L273.512 126.402L284.249 125.652L284.845 134.163ZM305.727 127.795L303.899 115.58L303.345 110.242L309.306 109.825L309.501 115.189L309.39 127.538L305.727 127.795ZM308.227 137.219C306.395 137.347 304.976 136.147 304.845 134.28C304.712 132.377 305.987 130.988 307.782 130.863C309.578 130.737 311.033 131.935 311.166 133.838C311.297 135.705 310.022 137.094 308.227 137.219ZM330.447 126.246L328.767 113.047L328.238 108.068L333.553 107.697L333.723 112.701L333.895 126.005L330.447 126.246ZM332.839 135.679C330.972 135.809 329.466 134.399 329.33 132.459C329.192 130.484 330.49 128.914 332.357 128.783C334.225 128.653 335.764 130.025 335.902 132C336.038 133.939 334.707 135.548 332.839 135.679Z" fill="#105F80"/>
<path d="M0 260L56.8389 178L166 178L0 260Z" fill="#F7FCFE"/>
</svg>
