<svg width="241" height="146" viewBox="0 0 241 146" fill="none" xmlns="http://www.w3.org/2000/svg">
<rect x="0.5" y="40.2534" width="233" height="106" rx="16" transform="rotate(-4 0.5 40.2534)" fill="#F7FCFE"/>
<path d="M75.7844 76.4259C72.9832 76.6218 71.0182 75.7006 69.6744 74.3751L71.1707 72.033C72.2961 72.9889 73.6442 73.6885 75.2483 73.5764C77.0439 73.4508 78.203 72.4796 78.0908 70.8755C77.9703 69.1517 76.8638 68.1224 73.0092 68.3919L72.8334 65.8781C76.0894 65.6504 77.0642 64.4515 76.9537 62.8713C76.8566 61.4827 75.9378 60.729 74.4295 60.8344C73.1606 60.9232 72.1712 61.5698 71.1865 62.625L69.2402 60.5959C70.6787 59.148 72.3199 58.1912 74.4028 58.0455C77.8265 57.8061 80.2677 59.3436 80.4786 62.3602C80.6126 64.2755 79.6323 65.7395 77.8167 66.6122L77.8251 66.7319C79.8508 67.1436 81.4868 68.5209 81.6492 70.8432C81.8769 74.0993 79.1601 76.1899 75.7844 76.4259ZM90.3855 75.4049C86.7703 75.6577 84.1552 72.6648 83.7283 66.5597C83.2997 60.4307 85.4846 57.2706 89.0998 57.0178C92.7149 56.765 95.2961 59.6159 95.723 65.721C96.1499 71.8261 94.0007 75.1521 90.3855 75.4049ZM90.193 72.6516C91.7253 72.5445 92.7434 70.9335 92.3951 65.9537C92.0486 60.9978 90.8229 59.64 89.2906 59.7471C87.7584 59.8543 86.7096 61.3711 87.0562 66.327C87.4044 71.3069 88.6607 72.7588 90.193 72.6516ZM101.178 53.9839L103.869 54.6137C103.448 56.1589 102.932 57.7346 102.32 59.2932L103.506 76.2677L100.801 76.4569L99.9439 64.1988C99.4691 64.9779 98.9909 65.709 98.4838 66.37C98.2198 65.6907 97.4083 64.0634 96.9271 63.3753C98.7619 61.0576 100.342 57.5068 101.178 53.9839ZM113.516 68.3743L113.34 65.8604L110.898 66.0312L111.074 68.545L113.516 68.3743ZM115.789 61.6474L112.892 61.8499L113.036 63.9089L115.334 63.7482L115.783 70.1645L109.151 70.6283L108.702 64.2119L110.833 64.0629L110.689 62.004L107.936 62.1965L107.792 60.1375L110.545 59.945L110.374 57.503L112.577 57.3489L112.748 59.791L115.645 59.5884L115.789 61.6474ZM108.022 72.0304L117.024 71.4009L115.989 56.6051L106.987 57.2346L108.022 72.0304ZM104.229 54.9494L118.522 53.9499L119.984 74.8509L117.278 75.0401L117.196 73.8669L108.194 74.4964L108.291 75.885L105.706 76.0658L104.229 54.9494ZM127.588 72.4666L126.344 54.6781L138.482 53.8293L138.688 56.7741L130.045 57.3785L130.337 61.5443L136.969 61.0805L137.176 64.0493L130.544 64.513L130.876 69.2535L139.83 68.6273L140.038 71.5961L127.588 72.4666ZM165.636 62.9975L165.993 68.097C166.081 69.3659 165.839 70.0324 164.885 70.4841C163.978 70.9325 162.661 71.0246 160.889 71.1484C160.671 70.4419 160.196 69.4888 159.791 68.8675C160.944 68.835 162.38 68.7345 162.692 68.7128C163.073 68.6621 163.21 68.5562 163.19 68.2689L163.001 65.5635L158.284 65.8934L158.74 72.4055L155.915 72.603L155.459 66.0909L151.198 66.3889L151.574 71.7758L148.821 71.9683L148.279 64.2112L155.293 63.7207L155.205 62.4518L158.03 62.2542L158.119 63.5231L165.636 62.9975ZM152.546 56.7674L153.742 56.3229C154.261 57.5617 154.758 59.1629 154.929 60.2336L153.711 60.7037C153.564 59.6314 153.089 58.0045 152.546 56.7674ZM163.23 54.0475L160.453 54.2417C160.896 55.0768 161.406 55.8351 162.058 56.5594C162.583 55.8009 162.958 54.9807 163.23 54.0475ZM167.037 53.7813L165.84 53.865C165.401 55.5076 164.754 56.9242 163.877 58.1403C165.018 58.9748 166.359 59.5787 167.852 59.9314C167.357 60.4232 166.75 61.3798 166.479 61.9762C164.908 61.5327 163.533 60.7868 162.312 59.8377C161.272 60.8005 160.004 61.5869 158.558 62.2414C158.306 61.7297 157.558 60.6753 157.092 60.2026C158.449 59.6506 159.632 59.0146 160.584 58.1782C159.981 57.4745 159.471 56.7162 158.981 55.9084C158.695 56.2893 158.384 56.6479 158.043 56.9364C157.758 56.6436 157.24 56.1264 156.754 55.7033L157.186 61.8802L155.151 62.0225L154.704 55.6301L152.333 55.7959L152.805 62.5474L151.058 62.6696L150.586 55.9181L148.263 56.0805L148.536 59.9829C148.828 59.0002 148.938 57.8136 148.981 56.704L150.389 56.8942C150.3 58.368 150.027 59.9749 149.667 61.0106C149.439 60.8581 148.946 60.6761 148.573 60.5097L148.75 63.0475L146.739 63.1881L146.135 54.5452L147.332 54.4615C147.042 53.76 146.473 52.8375 145.918 52.1305L147.823 51.1552C148.476 51.9034 149.174 52.9373 149.462 53.6148L148.002 54.4146L150.109 54.2673L149.85 50.5564L152.316 50.3839L152.575 54.0949L154.586 53.9542L153.33 53.5368C153.732 52.7389 154.221 51.4777 154.475 50.6419L156.829 51.2713C156.224 52.2519 155.641 53.2068 155.185 53.9124L156.621 53.8119L156.692 54.8175C157.901 53.53 158.789 51.7838 159.139 49.9068L161.545 50.2438C161.419 50.8541 161.221 51.4693 161.022 52.0607L166.888 51.6505L167.037 53.7813Z" fill="#105F80"/>
<path d="M63.7307 112.707L63.801 113.712L65.3316 113.581C65.1233 113.355 64.9167 113.153 64.7101 112.951L65.3587 112.593L63.7307 112.707ZM59.2662 111.479L61.2054 111.344L61.1385 110.386L59.1992 110.522L59.2662 111.479ZM59.0318 108.128L59.0971 109.061L61.0364 108.926L60.9711 107.992L59.0318 108.128ZM65.4242 107.681L63.3892 107.823L63.4544 108.757L65.4895 108.614L65.4242 107.681ZM65.6586 111.032L65.5916 110.075L63.5566 110.217L63.6235 111.175L65.6586 111.032ZM56.8889 116.361L56.603 114.336C57.9198 114.244 59.57 114.105 61.3863 113.929L61.3126 112.876L57.1468 113.167L56.6981 106.751L60.8639 106.46L60.802 105.574L56.2291 105.894L56.0835 103.811L60.6563 103.491L60.5458 101.911L62.9639 101.742L63.0744 103.322L67.8867 102.985L68.0323 105.068L63.2201 105.405L63.282 106.291L67.6633 105.984L68.112 112.401L67.1064 112.471C67.9601 113.325 68.752 114.329 69.2143 115.09L67.2958 116.211C67.1593 115.98 66.9956 115.702 66.7823 115.405C63.1994 115.775 59.5191 116.129 56.8889 116.361ZM64.1809 121.553L63.9967 118.92L60.4055 119.171C61.1996 119.861 61.9335 120.724 62.3156 121.371L61.3775 122.062C62.3385 122.043 63.4398 121.966 63.7511 121.944C64.0846 121.897 64.1993 121.816 64.1809 121.553ZM49.338 114.002L49.4367 115.415L50.8014 115.319L50.7026 113.907L49.338 114.002ZM49.1086 110.722L49.2074 112.135L50.5721 112.039L50.4733 110.627L49.1086 110.722ZM53.876 111.808L53.7772 110.396L52.3168 110.498L52.4156 111.91L53.876 111.808ZM54.1053 115.088L54.0066 113.676L52.5461 113.778L52.6449 115.19L54.1053 115.088ZM66.3714 115.722L66.4367 116.656L69.1661 116.465L69.3117 118.548L66.5824 118.739L66.7716 121.444C66.8569 122.665 66.7073 123.277 65.8226 123.7C64.9602 124.097 63.8127 124.201 62.1368 124.318C62.0164 123.629 61.6193 122.767 61.2868 122.14L60.371 122.806C59.9293 121.995 59.0299 120.831 58.1077 120.029L59.2323 119.253L56.9818 119.41L57.0789 120.799L53.3919 121.056L53.6565 124.839L51.1426 125.015L50.8781 121.232L47.0235 121.502L46.8494 119.012L50.704 118.742L50.6035 117.306L47.539 117.52L46.9346 108.877L49.9991 108.663L49.9121 107.418L46.3927 107.664L46.2202 105.198L49.7396 104.952L49.5806 102.678L52.0945 102.502L52.2535 104.776L55.6532 104.539L55.8256 107.004L52.4259 107.242L52.513 108.487L55.6972 108.265L56.3016 116.907L53.1174 117.13L53.2178 118.567L56.9048 118.309L56.8362 117.327L63.851 116.837L63.7858 115.903L66.3714 115.722ZM70.5632 110.641L92.5895 109.101L92.8054 112.19L70.7792 113.73L70.5632 110.641ZM112.528 104.892L105.226 105.403C104.62 107.394 103.829 109.157 102.965 110.565C102.309 110.13 100.792 109.418 100 109.112C101.832 106.747 102.976 102.817 103.401 98.9141L106.598 99.2198C106.436 100.338 106.248 101.434 106.01 102.509L113.217 102.005L113.756 101.799L115.924 102.874C115.479 105.456 114.652 108.088 113.92 109.991C113.321 109.696 112.108 109.204 111.395 108.989C111.78 107.952 112.224 106.381 112.528 104.892ZM101.246 102.505L101.439 105.258L94.855 105.719L94.6625 102.966L101.246 102.505ZM102.443 112.045L102.642 114.894L95.0526 115.425L94.8533 112.576L102.443 112.045ZM109.619 108.007L109.655 108.533C110.981 113.036 113.313 116.457 117.514 117.703C116.908 118.323 116.13 119.581 115.8 120.373C112.64 119.223 110.539 117.036 109.028 114.014C108.202 116.646 106.348 119.374 102.53 121.542C102.05 120.878 100.944 119.849 100.211 119.346C106.421 115.953 106.765 111.237 106.549 108.149L106.395 105.946L109.46 105.732L109.619 108.007ZM132.464 115.768L135.959 115.523C135.967 113.574 135.953 111.314 135.885 108.961L132.605 109.19C132.579 111.574 132.521 113.839 132.464 115.768ZM135.531 100.805L132.611 101.01C132.615 102.79 132.626 104.665 132.613 106.543L135.797 106.32C135.716 104.473 135.633 102.603 135.531 100.805ZM140.913 108.609L138.614 108.77C138.66 111.148 138.698 113.407 138.712 115.331L141.322 115.148L141.51 117.83L127.025 118.843L126.837 116.161L129.639 115.965C129.744 114.033 129.8 111.744 129.852 109.382L127.146 109.572L127.223 109.975C126.33 110.278 125.414 110.607 124.497 110.912L124.911 116.825C125.01 118.238 124.793 118.927 124.033 119.413C123.249 119.901 122.107 120.077 120.429 120.17C120.283 119.458 119.846 118.358 119.459 117.64C120.396 117.622 121.401 117.552 121.712 117.53C122.024 117.508 122.135 117.38 122.11 117.021L121.748 111.85C120.83 112.131 119.96 112.432 119.16 112.68L118.251 110.001C119.195 109.743 120.326 109.399 121.551 109.025L121.258 104.835L118.313 105.041L118.13 102.431L121.075 102.225L120.759 97.7003L123.56 97.5044L123.876 102.029L126.438 101.85L126.621 104.46L124.059 104.639L124.305 108.158L126.705 107.389L126.89 108.314L126.795 106.95L129.859 106.736C129.872 104.858 129.86 102.958 129.809 101.206L127.248 101.385L127.062 98.7271L138.171 97.9503C138.302 100.515 138.428 103.346 138.526 106.129L140.729 105.975L140.913 108.609ZM159.792 98.1947L154.31 98.5781L154.395 99.7991L159.351 99.4525C159.492 99.0577 159.655 98.6373 159.792 98.1947ZM146.41 99.4913L149.067 99.9792C148.934 100.494 148.754 101.012 148.572 101.505C149.374 102.315 150.461 102.721 151.771 102.87L151.485 98.7756L143.44 99.3381L143.28 97.0397L160.733 95.8193L161.181 95.6917L163.325 96.0711C162.857 97.6435 162.21 99.3969 161.617 100.545L159.764 100.194L159.844 101.343L154.529 101.714L154.613 102.911C155.093 102.902 155.572 102.868 156.099 102.832C157.487 102.735 162.731 102.368 164.497 102.172C164.13 102.775 163.805 103.977 163.739 104.751L156.246 105.275C152.295 105.552 149.611 105.354 147.699 103.467C146.654 105.393 145.257 107.078 143.564 108.327C143.279 107.698 142.507 106.284 142.032 105.692C144.124 104.295 145.75 102.088 146.41 99.4913ZM155.466 114.424L158.982 114.13C158.553 113.847 158.124 113.564 157.723 113.328L158.555 112.5L155.347 112.724L155.466 114.424ZM147.899 111.152L152.4 110.837L152.295 109.329L147.794 109.644L147.899 111.152ZM159.358 108.835L155.096 109.133L155.201 110.641L159.463 110.343L159.358 108.835ZM162.506 112.224L160.59 112.358C162.326 113.439 164.244 114.724 165.384 115.535L163.688 117.434C163.155 117.038 162.47 116.533 161.736 116.007C155.341 116.766 148.536 117.507 143.925 117.974L143.574 115.352C145.896 115.189 149.102 114.941 152.668 114.668L152.546 112.92L145.363 113.422L144.967 107.748L152.149 107.246L152.062 106.001L154.863 105.805L154.95 107.05L162.109 106.549L162.506 112.224ZM176.427 107.978L175.208 99.8353L174.839 96.2764L178.813 95.9985L178.943 99.5741L178.869 107.807L176.427 107.978ZM178.094 114.261C176.873 114.347 175.927 113.547 175.84 112.302C175.751 111.033 176.6 110.107 177.797 110.024C178.994 109.94 179.964 110.738 180.053 112.007C180.14 113.252 179.291 114.177 178.094 114.261ZM192.907 106.946L191.787 98.1467L191.435 94.8272L194.978 94.5794L195.091 97.9157L195.206 106.785L192.907 106.946ZM194.502 113.234C193.257 113.321 192.253 112.381 192.163 111.088C192.071 109.771 192.936 108.724 194.181 108.637C195.426 108.55 196.452 109.465 196.544 110.782C196.634 112.075 195.747 113.147 194.502 113.234Z" fill="#105F80"/>
<path d="M88 2.52146e-07L114.365 38L165 38L88 2.52146e-07Z" fill="#F7FCFE"/>
</svg>
